<?xml version="1.0" encoding="UTF-8"?>
<svg xmlns="http://www.w3.org/2000/svg" width="1024" height="1024" viewBox="0 0 1024 1024" role="img" aria-labelledby="title description">
  <title id="title">Slap/Top app icon — Motion arcs</title>
  <desc id="description">The motion arcs layer from the Slap/Top macOS app icon, aligned on a transparent 1024 by 1024 canvas.</desc>
  <defs>
    <linearGradient id="background" x1="144" y1="112" x2="880" y2="920" gradientUnits="userSpaceOnUse">
      <stop offset="0" stop-color="#20231d"/>
      <stop offset="0.48" stop-color="#0b0d09"/>
      <stop offset="1" stop-color="#050604"/>
    </linearGradient>
    <linearGradient id="screen" x1="270" y1="284" x2="770" y2="692" gradientUnits="userSpaceOnUse">
      <stop offset="0" stop-color="#6542df"/>
      <stop offset="0.5" stop-color="#2b1769"/>
      <stop offset="1" stop-color="#100a24"/>
    </linearGradient>
    <linearGradient id="screenSheen" x1="304" y1="330" x2="738" y2="614" gradientUnits="userSpaceOnUse">
      <stop stop-color="#ffffff" stop-opacity="0.22"/>
      <stop offset="0.42" stop-color="#ffffff" stop-opacity="0.03"/>
      <stop offset="1" stop-color="#ffffff" stop-opacity="0"/>
    </linearGradient>
    <linearGradient id="metal" x1="188" y1="722" x2="836" y2="814" gradientUnits="userSpaceOnUse">
      <stop stop-color="#73776e"/>
      <stop offset="0.18" stop-color="#f1efe8"/>
      <stop offset="0.5" stop-color="#8b8f85"/>
      <stop offset="0.82" stop-color="#f1efe8"/>
      <stop offset="1" stop-color="#666a62"/>
    </linearGradient>
    <linearGradient id="slash" x1="590" y1="338" x2="442" y2="664" gradientUnits="userSpaceOnUse">
      <stop stop-color="#e0ff78"/>
      <stop offset="0.48" stop-color="#c8ff2f"/>
      <stop offset="1" stop-color="#8ab800"/>
    </linearGradient>
    <radialGradient id="violetHalo" cx="50%" cy="48%" r="50%">
      <stop stop-color="#8d68ff" stop-opacity="0.34"/>
      <stop offset="1" stop-color="#8d68ff" stop-opacity="0"/>
    </radialGradient>
    <pattern id="grid" width="48" height="48" patternUnits="userSpaceOnUse">
      <path d="M48 0H0V48" fill="none" stroke="#f1efe8" stroke-opacity="0.035" stroke-width="2"/>
    </pattern>
    <clipPath id="screenClip">
      <rect x="218" y="242" width="588" height="436" rx="58"/>
    </clipPath>
  </defs>
  <g id="motion-layer" fill="none" stroke="#8d68ff" stroke-linecap="round">
    <path d="M132 426a124 124 0 0 0 0 172" stroke-width="18" stroke-opacity="0.32"/>
    <path d="M101 394a170 170 0 0 0 0 236" stroke-width="10" stroke-opacity="0.2"/>
    <path d="M892 426a124 124 0 0 1 0 172" stroke-width="18" stroke-opacity="0.32"/>
    <path d="M923 394a170 170 0 0 1 0 236" stroke-width="10" stroke-opacity="0.2"/>
    <path d="M426 142a124 124 0 0 1 172 0" stroke-width="18" stroke-opacity="0.32"/>
    <path d="M394 111a170 170 0 0 1 236 0" stroke-width="10" stroke-opacity="0.2"/>
  </g>
</svg>
