<?xml version="1.0" encoding="UTF-8"?>
<svg xmlns="http://www.w3.org/2000/svg" width="1024" height="1024" viewBox="0 0 1024 1024" role="img" aria-labelledby="title description">
  <title id="title">Slap/Top app icon — Laptop</title>
  <desc id="description">The laptop layer from the Slap/Top macOS app icon, aligned on a transparent 1024 by 1024 canvas.</desc>
  <defs>
    <linearGradient id="background" x1="144" y1="112" x2="880" y2="920" gradientUnits="userSpaceOnUse">
      <stop offset="0" stop-color="#20231d"/>
      <stop offset="0.48" stop-color="#0b0d09"/>
      <stop offset="1" stop-color="#050604"/>
    </linearGradient>
    <linearGradient id="screen" x1="270" y1="284" x2="770" y2="692" gradientUnits="userSpaceOnUse">
      <stop offset="0" stop-color="#6542df"/>
      <stop offset="0.5" stop-color="#2b1769"/>
      <stop offset="1" stop-color="#100a24"/>
    </linearGradient>
    <linearGradient id="screenSheen" x1="304" y1="330" x2="738" y2="614" gradientUnits="userSpaceOnUse">
      <stop stop-color="#ffffff" stop-opacity="0.22"/>
      <stop offset="0.42" stop-color="#ffffff" stop-opacity="0.03"/>
      <stop offset="1" stop-color="#ffffff" stop-opacity="0"/>
    </linearGradient>
    <linearGradient id="metal" x1="188" y1="722" x2="836" y2="814" gradientUnits="userSpaceOnUse">
      <stop stop-color="#73776e"/>
      <stop offset="0.18" stop-color="#f1efe8"/>
      <stop offset="0.5" stop-color="#8b8f85"/>
      <stop offset="0.82" stop-color="#f1efe8"/>
      <stop offset="1" stop-color="#666a62"/>
    </linearGradient>
    <linearGradient id="slash" x1="590" y1="338" x2="442" y2="664" gradientUnits="userSpaceOnUse">
      <stop stop-color="#e0ff78"/>
      <stop offset="0.48" stop-color="#c8ff2f"/>
      <stop offset="1" stop-color="#8ab800"/>
    </linearGradient>
    <radialGradient id="violetHalo" cx="50%" cy="48%" r="50%">
      <stop stop-color="#8d68ff" stop-opacity="0.34"/>
      <stop offset="1" stop-color="#8d68ff" stop-opacity="0"/>
    </radialGradient>
    <pattern id="grid" width="48" height="48" patternUnits="userSpaceOnUse">
      <path d="M48 0H0V48" fill="none" stroke="#f1efe8" stroke-opacity="0.035" stroke-width="2"/>
    </pattern>
    <clipPath id="screenClip">
      <rect x="218" y="242" width="588" height="436" rx="58"/>
    </clipPath>
  </defs>
  <g id="laptop-layer">
    <rect x="190" y="214" width="644" height="514" rx="78" fill="#090b08" stroke="#e8e7df" stroke-width="18"/>
    <rect x="218" y="242" width="588" height="436" rx="58" fill="url(#screen)"/>
    <g clip-path="url(#screenClip)">
      <path d="M170 610C315 432 433 477 550 397S748 263 864 334V724H170Z" fill="#8d68ff" fill-opacity="0.4"/>
      <path d="M170 680C306 558 444 624 568 519S758 430 864 492V724H170Z" fill="#321879" fill-opacity="0.88"/>
      <path d="M218 242H806V678H218Z" fill="url(#screenSheen)"/>
      <g transform="translate(260 276)">
        <rect width="78" height="50" rx="12" fill="#527dff"/>
        <rect x="92" width="78" height="50" rx="12" fill="#ff7548"/>
        <rect x="184" width="78" height="50" rx="12" fill="#8d68ff" stroke="#c8ff2f" stroke-width="7"/>
        <rect x="276" width="78" height="50" rx="12" fill="#18b8a8"/>
        <rect x="368" width="78" height="50" rx="12" fill="#e99320"/>
      </g>
    </g>
    <circle cx="512" cy="231" r="8" fill="#4a4d46" stroke="#f1efe8" stroke-opacity="0.62" stroke-width="3"/>
    <path d="M142 748H882L930 821Q940 840 910 844H114Q84 840 94 821Z" fill="#11130f" stroke="url(#metal)" stroke-width="16" stroke-linejoin="round"/>
    <path d="M432 804H592L574 834H450Z" fill="#050604" stroke="#8c9086" stroke-width="5" stroke-linejoin="round"/>
  </g>
</svg>
